<?xml version="1.0" standalone="no"?>
<!DOCTYPE svg PUBLIC "-//W3C//DTD SVG 20010904//EN"
 "http://www.w3.org/TR/2001/REC-SVG-20010904/DTD/svg10.dtd">
<svg version="1.0" xmlns="http://www.w3.org/2000/svg"
 width="200.000000pt" height="78.000000pt" viewBox="0 0 200.000000 78.000000"
 preserveAspectRatio="xMidYMid meet">

<g transform="translate(0.000000,78.000000) scale(0.100000,-0.100000)"
fill="#000000" stroke="none">
<path d="M345 724 c-46 -24 -63 -42 -95 -107 -26 -53 -36 -62 -88 -87 -95 -45
-141 -124 -108 -187 21 -42 76 -87 129 -108 38 -14 46 -23 56 -57 7 -22 32
-60 60 -89 40 -41 53 -49 85 -49 70 0 129 49 161 134 14 37 24 47 61 61 85 32
134 91 134 161 0 32 -8 45 -49 85 -29 28 -67 53 -89 60 -34 10 -43 18 -57 56
-29 75 -101 143 -152 143 -10 0 -31 -7 -48 -16z m113 -149 c101 -43 149 -161
107 -263 -34 -80 -101 -122 -195 -122 -34 0 -71 5 -83 11 -98 50 -110 168 -23
219 32 20 34 23 29 63 -3 23 -10 48 -16 55 -33 42 102 69 181 37z"/>
<path d="M363 542 c-6 -4 -15 -28 -18 -54 -6 -45 -6 -46 31 -64 45 -23 64 -48
47 -65 -9 -9 -18 -6 -39 10 -39 31 -47 27 -40 -18 7 -48 0 -71 -24 -71 -23 0
-34 31 -25 70 4 17 3 30 -2 30 -19 0 -33 -26 -33 -60 0 -99 152 -122 229 -35
17 19 33 50 36 68 13 67 -29 158 -82 178 -42 16 -68 19 -80 11z"/>
<path d="M185 660 c-30 -12 -63 -51 -71 -84 -4 -16 -3 -27 2 -25 5 2 25 10 45
18 26 10 40 24 50 50 8 20 15 39 17 44 5 9 -17 8 -43 -3z"/>
<path d="M566 648 c17 -56 24 -65 63 -80 40 -16 41 -16 41 6 0 29 -25 63 -60
81 -41 21 -53 19 -44 -7z"/>
<path d="M887 483 c-4 -3 -7 -57 -7 -120 l0 -113 29 0 c87 0 135 164 64 220
-25 19 -73 27 -86 13z m59 -21 c53 -35 41 -158 -19 -188 l-30 -16 6 77 c4 43
7 91 7 107 0 27 14 35 36 20z"/>
<path d="M1306 453 c-3 -21 -6 -75 -6 -120 l0 -83 28 0 c57 0 102 57 102 129
0 72 -33 111 -94 111 -19 0 -24 -7 -30 -37z m80 -8 c36 -55 9 -165 -43 -173
-18 -3 -19 2 -16 55 7 110 14 143 28 143 8 0 22 -11 31 -25z"/>
<path d="M1465 480 c-4 -6 -3 -16 3 -22 6 -6 12 -6 17 2 4 6 3 16 -3 22 -6 6
-12 6 -17 -2z"/>
<path d="M1696 414 c-37 -37 -32 -123 9 -150 30 -20 70 -12 86 17 15 29 5 35
-20 10 -26 -26 -36 -26 -62 0 -35 35 -22 54 44 57 31 2 57 8 57 13 0 15 -21
53 -34 61 -19 13 -64 9 -80 -8z m72 -16 c21 -21 13 -28 -28 -28 -22 0 -40 4
-40 8 0 14 23 32 40 32 9 0 21 -5 28 -12z"/>
<path d="M1040 335 c0 -50 4 -85 10 -85 6 0 10 16 10 35 0 51 28 115 51 115
14 0 19 -7 19 -30 0 -16 5 -30 11 -30 6 0 9 16 7 38 -3 32 -7 37 -30 40 -18 2
-31 -4 -42 -20 l-16 -22 0 22 c0 12 -4 22 -10 22 -6 0 -10 -35 -10 -85z"/>
<path d="M1464 405 c-4 -8 -3 -45 1 -82 9 -82 25 -66 25 24 0 60 -14 91 -26
58z"/>
<path d="M1573 388 l-18 -33 -3 28 c-2 15 -8 27 -13 27 -5 0 -9 -36 -9 -81 0
-88 11 -96 29 -22 14 54 38 96 50 88 5 -3 12 -36 16 -75 4 -40 11 -67 17 -64
8 5 4 83 -8 142 -7 33 -40 28 -61 -10z"/>
<path d="M1840 341 c0 -54 -4 -81 -12 -84 -7 -3 -3 -6 10 -6 19 -1 22 4 22 34
0 51 28 115 51 115 14 0 19 -7 19 -30 0 -16 5 -30 11 -30 6 0 9 16 7 38 -3 32
-7 37 -30 40 -18 2 -31 -4 -42 -20 l-16 -22 0 22 c0 12 -4 22 -10 22 -6 0 -10
-33 -10 -79z"/>
<path d="M1170 270 c0 -5 5 -10 10 -10 6 0 10 5 10 10 0 6 -4 10 -10 10 -5 0
-10 -4 -10 -10z"/>
<path d="M1785 230 c-13 -6 -15 -9 -5 -9 8 0 22 4 30 9 18 12 2 12 -25 0z"/>
<path d="M1846 214 c-10 -25 1 -29 14 -5 6 12 7 21 1 21 -5 0 -12 -7 -15 -16z"/>
<path d="M110 210 c0 -41 57 -100 96 -100 22 0 22 1 6 41 -9 23 -25 44 -36 49
-51 19 -66 21 -66 10z"/>
<path d="M623 204 c-21 -9 -38 -27 -48 -50 -19 -46 -19 -44 9 -44 32 0 86 54
86 86 0 27 -3 28 -47 8z"/>
<path d="M1750 200 c-13 -8 -13 -10 2 -10 9 0 20 5 23 10 8 13 -5 13 -25 0z"/>
<path d="M1796 194 c-4 -10 -1 -14 6 -12 15 5 23 28 10 28 -5 0 -13 -7 -16
-16z"/>
</g>
</svg>
